<svg xmlns="http://www.w3.org/2000/svg" width="130" height="130" xml:space="preserve"><path fill="#2FBAD1" d="M51.509 2.143 27.761 36.777l-.002 8.34 23.75-13.711z"/><path fill="#19809B" d="M51.509 2.143 27.761 36.777l-.002 8.34"/><path fill="#42517C" d="m27.761 36.777-1.98-1.142v8.341l1.972 1.137z"/><path fill="#1A6C99" d="M51.509 2.143 49.529 1 25.781 35.635l1.98 1.142z"/><path fill="#399FB7" d="m21.767 48.558 15.703 9.068v17.54l-15.703-9.068z"/><path fill="#19809B" d="m21.767 48.558 15.703 9.068v17.54"/><path fill="#1A6C99" d="M37.47 57.626v17.54l11.223-6.478v-17.54z"/><path fill="#32DBED" d="m37.47 57.626 11.223-6.478-15.708-9.069-11.218 6.479z"/><path fill="#2FBAD1" d="m21.767 48.558 15.703 9.068 11.223-6.478"/><path fill="#399FB7" d="m22.147 48.777 11.224 6.482V42.302l-.386-.223-10.838 6.259z"/><g><path fill="#077399" d="M32.125 67.229 55.05 80.467v25.607L32.125 92.835z"/><path fill="#1A6C99" d="M32.125 67.229 55.05 80.467v25.607"/><path fill="#210803" d="M55.05 80.467v25.607l16.386-9.456V71.012z"/><path fill="#32DBED" d="m55.05 80.467 16.386-9.455-22.932-13.241-16.379 9.458z"/><path fill="#2FBAD1" d="M32.125 67.229 55.05 80.467l16.386-9.455"/></g><g><path fill="#5597A0" d="M48.716 51.033 94.73 77.604V129l-46.014-26.572z"/><path fill="#A3DFE2" d="M82.021 87.574v10.111l12.709 7.334V94.908z"/><path fill="#318AAD" d="M48.716 102.428V51.033L94.73 77.604"/><path fill="#19809B" d="M48.716 77.131V51.033L94.73 77.604"/><path fill="#32DBED" d="M55.391 65.312v14.17l1.704.985V66.296zM59.053 67.229V81.4l1.704.985V68.214zM62.715 69.146v14.172l1.704.985V70.131z"/><path fill="#A3DFE2" d="M94.73 77.604V129l32.888-18.979V58.627z"/><path fill="#81C3C6" d="M127.618 58.627 94.73 77.604V129"/><path fill="#9FFFFF" d="m94.73 105.019 32.888-18.979V75.93L94.73 94.908z"/><path fill="#D3E9F4" d="m94.73 103.088 32.888-18.979v-10.11L94.73 92.978z"/><path fill="#A9D3E0" d="m94.73 96.701 32.888-18.978v-3.724L94.73 92.978z"/><path fill="#32DBED" d="m94.73 77.604 32.888-18.977-46.025-26.575-32.877 18.981z"/><path fill="#2FBAD1" d="M48.716 51.033 94.73 77.604l32.888-18.977"/><path fill="#2FBAD1" d="M48.716 51.033 94.73 77.604l32.888-18.977"/><path fill="#259CB7" d="m92.61 45.563-1.881 1.087-23.584-34.396v49.422l23.749 13.711.223.132 1.493.862z"/><path fill="#2A2D42" d="m72.896 73.718 4.587 2.649v5.125l-4.587-2.65z"/><path fill="#121426" d="m72.896 73.718 4.587 2.649v5.125"/></g><path fill="#FFF" d="M82.021 85.644v10.11l12.709 7.334v-10.11z"/><path fill="#D3E9F4" d="m82.021 89.367 12.709 7.334v-3.723l-12.709-7.334z"/><g><path fill="#2FBAD1" d="M28.107 36.572 4.36 29.359l-.001 29.264 23.748-13.711z"/><path fill="#19809B" d="M28.107 36.572 4.36 29.359l-.001 29.264"/><path fill="#1A6C99" d="m4.36 29.359-1.978-1.142V57.48l1.972 1.139z"/><path fill="#4F6499" d="m28.107 36.572-1.977-1.141-23.748-7.214 1.978 1.142z"/></g><g><path fill="#19809B" d="m67.145 11.479 23.748 34.634.001 8.34-23.749-13.711z"/><path fill="#0A6E91" d="m67.145 11.479 23.748 34.634.001 8.34"/><path fill="#399FB7" d="m90.893 46.113 1.979-1.141v8.34L90.9 54.45z"/><path fill="#2FBAD1" d="m67.145 11.479 1.979-1.142 23.748 34.635-1.979 1.141z"/></g><g><path fill="#32DBED" d="m23.367 101.064 41.869 3.248 7.222-4.167L48.71 86.432z"/><path fill="#2FBAD1" d="M48.716 86.436v15.992l14.319-7.725z"/><path fill="#2FBAD1" d="m23.367 101.064 41.869 3.248 7.222-4.167"/><path fill="#399FB7" d="M65.236 104.312v2.286l7.223-4.17v-2.277z"/><path fill="#19809B" d="M23.367 101.064v2.286l41.869 3.248v-2.286z"/></g></svg>